<svg xmlns="http://www.w3.org/2000/svg" xmlns:xlink="http://www.w3.org/1999/xlink" version="1.1" x="0px" y="0px" viewBox="0 0 512 640" style="enable-background:new 0 0 512 512;" xml:space="preserve"><g><path d="M385.1,12.6c-10.8-4.1-22.5-1-30.1,7.7l-14.8,17.2l-1.6-4.1c-4-10-13.5-16.4-24.2-16.4c-0.1,0-0.2,0-0.3,0   c-10.8,0.1-20.3,6.7-24.1,16.9l-13.7,36.4L252.2,18C247.3,7.4,237,0.6,225.3,0.4c-11.7-0.2-22.2,6.1-27.5,16.5l-19.2,37.7   c-0.6,1.1-1.5,1.5-2.2,1.6c-0.7,0.1-1.7,0-2.6-0.9l-16.6-16.9c-8-8.2-20-10.6-30.5-6.2c-10.5,4.4-17.3,14.6-17.2,26l1.8,171.7   c0,42.6,34.7,77.2,77.3,77.2h135.1c42.6,0,77.2-34.6,77.3-77.2l1.8-191.6C402.7,26.7,395.8,16.7,385.1,12.6z M180,161.5   c0-14,11.4-25.4,25.4-25.4s25.4,11.4,25.4,25.4s-11.4,25.4-25.4,25.4S180,175.5,180,161.5z M289.8,248.1   c-4.5,5.8-12.1,8.9-19.7,8.1l-14.2-1.5l-14.8,1.5c-0.8,0.1-1.6,0.1-2.4,0.1c-6.5,0-12.7-2.8-16.8-7.6c-4.2-5-5.7-11.8-4-18l1.8-6.5   c2.5-8.9,11-15.1,20.8-15.1c1.4,0,2.9,0.2,4.2,0.6c7.2,2,14.1,2,21.1,0c1.4-0.4,2.8-0.6,4.3-0.6c9.2,0,17.4,5.5,20.3,13.7l2.3,6.4   C295.2,235.7,294,242.7,289.8,248.1z M306.7,186.9c-14,0-25.4-11.4-25.4-25.4s11.4-25.4,25.4-25.4s25.4,11.4,25.4,25.4   S320.7,186.9,306.7,186.9z"/><path d="M418.4,493.6l-17.9-119.7c-3.5-23.4-24-41-47.6-41H159.1c-23.6,0-44.1,17.6-47.6,41l-3.5,23.3l57.5,30.4   c7.8,4.1,10.8,13.8,6.7,21.6c-2.9,5.4-8.4,8.5-14.2,8.5c-2.5,0-5.1-0.6-7.5-1.9L103,430.7l-9.4,62.9c-0.7,4.6,0.7,9.3,3.7,12.8   c3,3.5,7.5,5.6,12.1,5.6h139.9l-14.4-72.2l-31.3-20c-7.4-4.8-9.6-14.6-4.9-22.1c4.8-7.4,14.6-9.6,22.1-4.9l37,23.6   c3.7,2.3,6.2,6.1,7.1,10.4l17,85.1h120.7c4.7,0,9.1-2,12.1-5.6C417.8,502.9,419.1,498.2,418.4,493.6z M347,418.4l-22,19.2   c-3,2.6-6.8,3.9-10.5,3.9c-4.5,0-8.9-1.9-12.1-5.5c-5.8-6.7-5.1-16.8,1.5-22.6l22-19.2c6.7-5.8,16.8-5.1,22.6,1.5   C354.3,402.5,353.6,412.6,347,418.4z"/><path d="M511.8,493.3l-4.8-27.9c-7-41.4-35.8-74.1-73.5-87.3l8.4,56.1l21,5.2c8.6,2.1,13.8,10.8,11.7,19.4   c-1.8,7.3-8.3,12.2-15.5,12.2c-1.3,0-2.6-0.2-3.8-0.5l-8.2-2l3.1,20.5c1.2,7.9,0.4,15.8-2.2,23.1H496c4.7,0,9.2-2.1,12.2-5.7   S512.6,498,511.8,493.3z"/><path d="M61.9,488.9l16.6-110.8c-19.7,6.9-37,19.2-50,35.2l15.3,9.2c7.6,4.6,10,14.4,5.4,22c-3,5-8.3,7.7-13.7,7.7   c-2.8,0-5.7-0.7-8.2-2.3l-15.2-9.2c-3.2,7.8-5.6,16-7.1,24.6l-4.8,27.9c-0.8,4.6,0.5,9.4,3.5,13S11.3,512,16,512h48.1   C61.5,504.7,60.7,496.8,61.9,488.9z"/></g></svg>